<svg xmlns="http://www.w3.org/2000/svg" viewBox="0 0 1024 1024" role="img" aria-label="Icono Cuestionarios">
  <defs>
    <linearGradient id="bg1" x1="0" y1="0" x2="1" y2="1">
      <stop offset="0%" stop-color="#1f89ff"/>
      <stop offset="100%" stop-color="#0051e6"/>
    </linearGradient>
    <linearGradient id="bg2" x1="0" y1="0" x2="0.9" y2="1">
      <stop offset="0%" stop-color="#49b4ff"/>
      <stop offset="100%" stop-color="#1778ff"/>
    </linearGradient>
    <filter id="shadow" x="-20%" y="-20%" width="140%" height="140%">
      <feDropShadow dx="0" dy="20" stdDeviation="22" flood-color="#0039a8" flood-opacity="0.35"/>
    </filter>
  </defs>
  <rect width="1024" height="1024" rx="210" fill="url(#bg1)"/>
  <rect x="95" y="95" width="834" height="834" rx="165" fill="url(#bg2)" filter="url(#shadow)"/>
  <path d="M520 285c-162 0-267 114-267 286 0 173 108 290 275 290 66 0 127-17 178-50l78 62c13 10 32 9 44-4l22-24-94-74c40-46 63-109 63-188 0-177-108-298-299-298zm2 78c114 0 188 84 188 221 0 50-10 91-28 125l-65-52-48 49 65 53c-31 16-67 24-108 24-116 0-189-86-189-223 0-137 71-197 185-197z" fill="#ffffff"/>
</svg>